<svg
	xmlns="http://www.w3.org/2000/svg" version="1.1"
	xmlns:xlink="http://www.w3.org/1999/xlink"
	xmlns:svgjs="http://svgjs.dev/svgjs" width="1500" height="246" viewBox="0 0 1500 246">
	<g transform="matrix(1,0,0,1,-0.9090909090909918,0.07108686679529796)">
		<svg viewBox="0 0 396 65" data-background-color="#010536" preserveAspectRatio="xMidYMid meet" height="246" width="1500"
			xmlns="http://www.w3.org/2000/svg"
			xmlns:xlink="http://www.w3.org/1999/xlink">
			<g id="tight-bounds" transform="matrix(1,0,0,1,0.2400000000000091,-0.018783115210140977)">
				<svg viewBox="0 0 395.52 65.03756623042027" height="65.03756623042027" width="395.52">
					<g>
						<svg viewBox="0 0 491.81209709065405 80.87141443531377" height="65.03756623042027" width="395.52">
							<g>
								<rect width="3.1437326731626065" height="70.22119922024349" x="84.9186977338197" y="5.325107607535138" fill="#091E3E" opacity="1" stroke-width="0" stroke="transparent" fill-opacity="1" class="rect-qz-0" data-fill-palette-color="primary" rx="1%" id="qz-0" data-palette-color="#f50303"></rect>
							</g>
							<g transform="matrix(1,0,0,1,96.29209709065404,11.176874209222095)">
								<svg viewBox="0 0 395.52 58.517666016869576" height="58.517666016869576" width="395.52">
									<g id="textblocktransform">
										<svg viewBox="0 0 395.52 58.517666016869576" height="58.517666016869576" width="395.52" id="textblock">
											<g>
												<svg viewBox="0 0 395.52 34.86024281871831" height="34.86024281871831" width="395.52">
													<g transform="matrix(1,0,0,1,0,0)">
														<svg width="395.52" viewBox="0.5 -29.45 341.12102277154054 29.95" height="34.86024281871831" data-palette-color="#f50303">
															<g transform="matrix(1,0,0,1,0,0)">
																<g>
																	<svg width="3.8887454822128404" viewBox="3.16 -36.36 28.68 36.36" height="4.931362691994983" data-palette-color="#f50303" id="scriptelement" x="334.85762003043413" y="-7.284711345997492">
																		<path d="M10.85 0L3.16 0 3.16-36.36 17.51-36.36Q21.63-36.36 24.55-34.9 27.47-33.43 29-30.76 30.54-28.09 30.54-24.49L30.54-24.49Q30.54-20.86 28.98-18.26 27.41-15.66 24.46-14.28 21.5-12.89 17.31-12.89L17.31-12.89 7.71-12.89 7.71-19.07 16.07-19.07Q18.27-19.07 19.73-19.67 21.18-20.28 21.9-21.48 22.62-22.69 22.62-24.49L22.62-24.49Q22.62-26.3 21.9-27.54 21.18-28.78 19.72-29.43 18.25-30.08 16.03-30.08L16.03-30.08 10.85-30.08 10.85 0ZM14.51-16.55L22.8-16.55 31.84 0 23.35 0 14.51-16.55Z" opacity="1" transform="matrix(1,0,0,1,0,0)" fill="#ffffff" class="undefined-123" data-fill-palette-color="primary" id="yy-123"></path>
																	</svg>
																</g>
															</g>
															<path d="M331.983-4.819C331.983-7.481 334.141-9.638 336.802-9.638 339.463-9.638 341.621-7.48 341.621-4.819 341.621-2.158 339.463 0 336.802 0 334.141 0 331.983-2.158 331.983-4.819ZM336.802-0.553C339.158-0.553 341.068-2.463 341.068-4.819 341.068-7.175 339.158-9.085 336.802-9.085 334.446-9.085 332.536-7.175 332.536-4.819 332.536-2.463 334.446-0.553 336.802-0.553Z" fill="#ffffff" id="scriptcircle" data-fill-palette-color="primary"></path>
															<g class="wordmark-text-0" data-fill-palette-color="primary" id="text-0">
																<path d="M22.45 0L14.45 0 0.5-29.35 7.5-29.35 16.9-9.1 18.25-5.5 18.7-5.5 20-9.1 29.5-29.35 36.3-29.35 35.5-26.35 22.45 0ZM72.75 0.5L72.75 0.5Q70.75 0.5 68.82-0.13 66.9-0.75 64.45-3.2L64.45-3.2 60.85-6.8Q58.65-9.05 56.02-10.1 53.4-11.15 49.45-11.15L49.45-11.15 47.9-11.15 47.9 0 41.3 0 41.3-25.4 40.8-29.45 62.95-29.45Q66.15-29.45 67.97-28.6 69.8-27.75 70.67-26.38 71.55-25 71.8-23.45 72.05-21.9 72.05-20.5L72.05-20.5 72.05-19.55Q72.05-18.45 71.75-17.1 71.45-15.75 70.6-14.45 69.75-13.15 68.17-12.25 66.6-11.35 64.05-11.2L64.05-11.2Q64.7-10.85 65.7-10.13 66.7-9.4 67.77-8.55 68.85-7.7 69.75-7 70.65-6.3 71.15-6L71.15-6Q72.95-4.95 74.35-4.55 75.75-4.15 76.65-4.1 77.55-4.05 77.7-4.05L77.7-4.05 76.7 0Q76.25 0.15 75.2 0.33 74.15 0.5 72.75 0.5ZM55.4-15.7L55.4-15.7Q57.3-15.7 58.8-15.78 60.3-15.85 61.5-15.95L61.5-15.95Q63.7-16.2 64.57-17.18 65.45-18.15 65.45-19.7L65.45-19.7 65.45-20.85Q65.45-22.45 64.6-23.55 63.75-24.65 61.55-24.65L61.55-24.65 47.9-24.65 47.9-15.95Q50.1-15.8 51.95-15.75 53.8-15.7 55.4-15.7ZM88.8 0L82.2 0 82.2-29.4 88.8-29.4 88.8 0ZM118.99 0L102.39 0Q98.99 0 97.39-0.3 95.79-0.6 95.79-1L95.79-1 97.79-5.35Q98.94-5.15 103.52-4.98 108.09-4.8 116.09-4.8L116.09-4.8 117.04-4.8Q119.19-4.8 120.09-5.58 120.99-6.35 120.99-8.2L120.99-8.2 120.99-9.2Q120.99-10.95 120.27-11.7 119.54-12.45 117.04-12.45L117.04-12.45 105.44-12.45Q100.39-12.45 98.09-14.33 95.79-16.2 95.79-20.45L95.79-20.45 95.79-21.25Q95.79-23.45 96.62-25.3 97.44-27.15 99.44-28.28 101.44-29.4 104.94-29.4L104.94-29.4 118.54-29.4Q121.94-29.4 124.04-29.05 126.14-28.7 126.14-28.3L126.14-28.3 125.14-24.1Q123.84-24.25 119.24-24.43 114.64-24.6 106.89-24.6L106.89-24.6 106.34-24.65Q104.04-24.65 103.24-23.73 102.44-22.8 102.39-21.4L102.39-21.4 102.39-20.55Q102.39-18.9 103.32-18.07 104.24-17.25 106.39-17.25L106.39-17.25 117.49-17.25Q120.69-17.25 122.94-16.6 125.19-15.95 126.39-14.23 127.59-12.5 127.59-9.15L127.59-9.15 127.59-8.35Q127.59-4.6 125.67-2.3 123.74 0 118.99 0L118.99 0ZM137.89 0L130.59 0 145.24-29.4 155.09-29.4 169.69 0 161.99 0 159.04-6.35 141.14-6.35 137.89 0ZM149.84-24.9L142.94-11.25 157.19-11.25 150.34-24.9 149.84-24.9Z" fill="#ffffff" data-fill-palette-color="primary"></path>
																<path d="M191.29 0L184.69 0 184.69-29.4 191.29-29.4 191.29 0ZM206.39 0L199.79 0 199.79-25.4 199.29-29.4 206.49-29.4 223.49-11.6 225.44-8.9 225.99-8.9 225.99-29.4 232.59-29.4 232.59 0 226.24 0 208.84-18.1 206.89-20.45 206.39-20.45 206.39 0ZM263.78 0L241.08 0 241.08-25.4 240.58-29.4 263.78-29.4Q267.83-29.4 270.01-28.4 272.18-27.4 273.03-25.43 273.88-23.45 273.88-20.5L273.88-20.5 273.88-8.95Q273.88-5.95 273.06-3.98 272.23-2 270.06-1 267.88 0 263.78 0L263.78 0ZM247.68-24.6L247.68-4.8 263.38-4.8Q267.23-4.8 267.28-8.35L267.28-8.35 267.28-21.1Q267.28-22.55 266.43-23.58 265.58-24.6 263.38-24.6L263.38-24.6 247.68-24.6ZM287.48 0L280.88 0 280.88-29.4 287.48-29.4 287.48 0ZM298.78 0L291.48 0 306.13-29.4 315.98-29.4 330.58 0 322.88 0 319.93-6.35 302.03-6.35 298.78 0ZM310.73-24.9L303.83-11.25 318.08-11.25 311.23-24.9 310.73-24.9Z" fill="#091E3E" data-fill-palette-color="secondary"></path>
															</g>
														</svg>
													</g>
												</svg>
											</g>
											<g transform="matrix(1,0,0,1,0,43.08990950239006)">
												<svg viewBox="0 0 323.13984 15.427756514479519" height="15.427756514479519" width="323.13984">
													<g transform="matrix(1,0,0,1,0,0)">
														<svg width="323.13984" viewBox="1.3 -35.9 958.1400000000001 45.75" height="15.427756514479519" data-palette-color="#091E3E">
															<path d="M16.8-12.55L16.8 0 12.75 0 12.75-12.5 1.3-33.7 6-33.7 8.55-28.75Q11.15-23.75 12.7-20.6 14.25-17.45 14.5-16.8L14.5-16.8 14.75-16.2Q15.2-17.45 21.1-28.75L21.1-28.75 23.65-33.7 28.35-33.7 16.8-12.55ZM55.6-12.6L55.6-12.6Q55.6-6.95 52.4-3.25 49.2 0.45 43.6 0.45L43.6 0.45Q38.15 0.45 34.97-3.23 31.8-6.9 31.8-12.5L31.8-12.5Q31.8-18.15 35.07-21.93 38.35-25.7 43.6-25.7L43.6-25.7Q49.35-25.7 52.47-22 55.6-18.3 55.6-12.6ZM35.9-12.55L35.9-12.55Q35.9-8.6 38-5.83 40.1-3.05 43.6-3.05L43.6-3.05Q47.4-3.05 49.45-5.78 51.5-8.5 51.5-12.55L51.5-12.55Q51.5-16.75 49.55-19.48 47.6-22.2 43.6-22.2L43.6-22.2Q40-22.2 37.95-19.4 35.9-16.6 35.9-12.55ZM81.09-25.35L81.09 0 77.15 0 77.15-4.4Q75.15 0.3 69.2 0.3L69.2 0.3Q65.45 0.3 63.27-1.93 61.1-4.15 61.1-7.9L61.1-7.9 61.1-25.35 65.05-25.35 65.05-8.9Q65.05-6.15 66.45-4.7 67.84-3.25 70.25-3.25L70.25-3.25Q73.4-3.25 75.27-5.45 77.15-7.65 77.15-11.4L77.15-11.4 77.15-25.35 81.09-25.35ZM105.14-33.7L105.14 0 101.09 0 101.09-33.7 105.14-33.7ZM146.84-17.4L146.84 0 142.89 0 142.89-16.4Q142.89-22.15 138.04-22.15L138.04-22.15Q135.64-22.15 133.74-19.98 131.84-17.8 131.84-13.85L131.84-13.85 131.84 0 127.89 0 127.89-16.4Q127.89-22.15 123.04-22.15L123.04-22.15Q120.64-22.15 118.74-19.98 116.84-17.8 116.84-13.85L116.84-13.85 116.84 0 112.94 0 112.94-25.35 116.84-25.35 116.84-21.25Q118.94-25.7 123.99-25.7L123.99-25.7Q129.84-25.7 131.39-20.75L131.39-20.75Q132.49-23.15 134.46-24.43 136.44-25.7 138.89-25.7L138.89-25.7Q142.84-25.7 144.84-23.45 146.84-21.2 146.84-17.4L146.84-17.4ZM161.59-3.05L161.59-3.05Q164.29-3.05 165.89-4.58 167.49-6.1 167.49-8.45L167.49-8.45 167.49-11.7 163.09-11.7Q159.89-11.7 158.29-10.45 156.69-9.2 156.69-7.3 156.69-5.4 157.94-4.23 159.19-3.05 161.59-3.05ZM167.54 0L167.54-3Q165.59 0.25 160.44 0.25L160.44 0.25Q156.89 0.25 154.71-1.85 152.54-3.95 152.54-7.15L152.54-7.15Q152.54-10.8 155.31-12.83 158.09-14.85 162.89-14.85L162.89-14.85 167.49-14.85 167.49-16.15Q167.49-19.15 166.14-20.68 164.79-22.2 161.59-22.2L161.59-22.2Q157.54-22.2 154.39-20.05L154.39-20.05 154.39-24Q157.24-25.75 161.89-25.75L161.89-25.75Q171.44-25.75 171.44-16.05L171.44-16.05 171.44 0 167.54 0ZM198.88-25.35L198.88-2.05Q198.88 3.75 195.68 6.68 192.48 9.6 187.43 9.6L187.43 9.6Q182.83 9.6 179.58 8.05L179.58 8.05 179.58 4.1Q182.78 5.95 187.08 5.95L187.08 5.95Q190.73 5.95 192.83 4 194.93 2.05 194.93-2.1L194.93-2.1 194.93-4.95Q192.43-0.65 187.48-0.65L187.48-0.65Q183.13-0.65 180.06-3.85 176.98-7.05 176.98-12.75L176.98-12.75Q176.98-18.4 179.83-22.05 182.68-25.7 187.28-25.7L187.28-25.7Q192.48-25.7 194.93-21.15L194.93-21.15 194.93-25.35 198.88-25.35ZM181.08-12.85L181.08-12.85Q181.08-8.6 183.18-6.38 185.28-4.15 187.93-4.15L187.93-4.15Q190.68-4.15 192.81-6.28 194.93-8.4 194.93-12.6L194.93-12.6Q194.93-17.45 192.88-19.8 190.83-22.15 188.13-22.15L188.13-22.15Q184.88-22.15 182.98-19.58 181.08-17 181.08-12.85ZM210.03-25.35L210.03 0 206.08 0 206.08-25.35 210.03-25.35ZM209.88-35.15Q210.63-34.4 210.63-33.3 210.63-32.2 209.88-31.48 209.13-30.75 208.03-30.75 206.93-30.75 206.21-31.48 205.48-32.2 205.48-33.3 205.48-34.4 206.21-35.15 206.93-35.9 208.03-35.9 209.13-35.9 209.88-35.15ZM237.53-17.45L237.53 0 233.58 0 233.58-16.4Q233.58-19.2 232.15-20.68 230.73-22.15 228.43-22.15L228.43-22.15Q225.58-22.15 223.5-19.95 221.43-17.75 221.43-13.85L221.43-13.85 221.43 0 217.53 0 217.53-25.35 221.43-25.35 221.43-20.95Q223.68-25.7 229.43-25.7L229.43-25.7Q233.13-25.7 235.33-23.45 237.53-21.2 237.53-17.45L237.53-17.45ZM263.03-5L263.03-1.3Q260.08 0.25 255.83 0.25L255.83 0.25Q250.08 0.25 246.55-3.28 243.03-6.8 243.03-12.6L243.03-12.6Q243.03-18.65 246.18-22.15 249.33-25.65 254.28-25.65L254.28-25.65Q259.03-25.65 261.83-22.6 264.63-19.55 264.63-13.95L264.63-13.95Q264.63-12.35 264.38-11L264.38-11 247.08-11Q247.53-7.25 249.93-5.25 252.33-3.25 256.23-3.25L256.23-3.25Q260.48-3.25 263.03-5L263.03-5ZM254.28-22.2L254.28-22.2Q251.43-22.2 249.43-20.15 247.43-18.1 247.08-14.3L247.08-14.3 260.68-14.3 260.68-15.3Q260.68-18.45 258.98-20.33 257.28-22.2 254.28-22.2ZM287.37-33.7L287.37 0 283.32 0 283.32-33.7 287.37-33.7ZM329.07-17.4L329.07 0 325.12 0 325.12-16.4Q325.12-22.15 320.27-22.15L320.27-22.15Q317.87-22.15 315.97-19.98 314.07-17.8 314.07-13.85L314.07-13.85 314.07 0 310.12 0 310.12-16.4Q310.12-22.15 305.27-22.15L305.27-22.15Q302.87-22.15 300.97-19.98 299.07-17.8 299.07-13.85L299.07-13.85 299.07 0 295.17 0 295.17-25.35 299.07-25.35 299.07-21.25Q301.17-25.7 306.22-25.7L306.22-25.7Q312.07-25.7 313.62-20.75L313.62-20.75Q314.72-23.15 316.69-24.43 318.67-25.7 321.12-25.7L321.12-25.7Q325.07-25.7 327.07-23.45 329.07-21.2 329.07-17.4L329.07-17.4ZM339.97-3.85L339.97 9.85 336.06 9.85 336.06-25.35 339.97-25.35 339.97-21.5Q342.62-25.75 347.81-25.75L347.81-25.75Q352.87-25.75 355.74-22.08 358.62-18.4 358.62-12.9L358.62-12.9Q358.62-7.05 355.59-3.33 352.56 0.4 347.72 0.4L347.72 0.4Q342.72 0.4 339.97-3.85L339.97-3.85ZM339.97-12.65L339.97-12.65Q339.97-7.8 342.22-5.5 344.47-3.2 347.22-3.2L347.22-3.2Q350.42-3.2 352.47-5.73 354.52-8.25 354.52-12.9L354.52-12.9Q354.52-17.05 352.52-19.6 350.52-22.15 347.47-22.15 344.42-22.15 342.19-19.93 339.97-17.7 339.97-12.65ZM386.71-12.6L386.71-12.6Q386.71-6.95 383.51-3.25 380.31 0.45 374.71 0.45L374.71 0.45Q369.26 0.45 366.09-3.23 362.91-6.9 362.91-12.5L362.91-12.5Q362.91-18.15 366.19-21.93 369.46-25.7 374.71-25.7L374.71-25.7Q380.46-25.7 383.59-22 386.71-18.3 386.71-12.6ZM367.01-12.55L367.01-12.55Q367.01-8.6 369.11-5.83 371.21-3.05 374.71-3.05L374.71-3.05Q378.51-3.05 380.56-5.78 382.61-8.5 382.61-12.55L382.61-12.55Q382.61-16.75 380.66-19.48 378.71-22.2 374.71-22.2L374.71-22.2Q371.11-22.2 369.06-19.4 367.01-16.6 367.01-12.55ZM407.76-6.75L407.76-6.75Q407.76-3.5 405.49-1.6 403.21 0.3 399.26 0.3L399.26 0.3Q394.66 0.3 391.81-1.25L391.81-1.25 391.81-5.1Q395.16-3.1 399.01-3.1L399.01-3.1Q401.31-3.1 402.51-4 403.71-4.9 403.71-6.45L403.71-6.45Q403.71-8.25 402.39-9.25 401.06-10.25 397.96-11.5L397.96-11.5Q395.11-12.6 393.39-14.25 391.66-15.9 391.66-18.7L391.66-18.7Q391.66-21.85 394.04-23.73 396.41-25.6 399.96-25.6L399.96-25.6Q403.91-25.6 406.31-24.5L406.31-24.5 406.31-20.75Q404.01-22.15 400.01-22.15L400.01-22.15Q398.01-22.15 396.84-21.23 395.66-20.3 395.66-18.85L395.66-18.85Q395.66-17.95 396.01-17.28 396.36-16.6 397.39-15.95 398.41-15.3 398.89-15.08 399.36-14.85 400.96-14.15L400.96-14.15Q404.16-12.85 405.96-11.2 407.76-9.55 407.76-6.75ZM428.36-6.75L428.36-6.75Q428.36-3.5 426.08-1.6 423.81 0.3 419.86 0.3L419.86 0.3Q415.26 0.3 412.41-1.25L412.41-1.25 412.41-5.1Q415.76-3.1 419.61-3.1L419.61-3.1Q421.91-3.1 423.11-4 424.31-4.9 424.31-6.45L424.31-6.45Q424.31-8.25 422.98-9.25 421.66-10.25 418.56-11.5L418.56-11.5Q415.71-12.6 413.98-14.25 412.26-15.9 412.26-18.7L412.26-18.7Q412.26-21.85 414.63-23.73 417.01-25.6 420.56-25.6L420.56-25.6Q424.51-25.6 426.91-24.5L426.91-24.5 426.91-20.75Q424.61-22.15 420.61-22.15L420.61-22.15Q418.61-22.15 417.43-21.23 416.26-20.3 416.26-18.85L416.26-18.85Q416.26-17.95 416.61-17.28 416.96-16.6 417.98-15.95 419.01-15.3 419.48-15.08 419.96-14.85 421.56-14.15L421.56-14.15Q424.76-12.85 426.56-11.2 428.36-9.55 428.36-6.75ZM437.86-25.35L437.86 0 433.91 0 433.91-25.35 437.86-25.35ZM437.71-35.15Q438.46-34.4 438.46-33.3 438.46-32.2 437.71-31.48 436.96-30.75 435.86-30.75 434.76-30.75 434.03-31.48 433.31-32.2 433.31-33.3 433.31-34.4 434.03-35.15 434.76-35.9 435.86-35.9 436.96-35.9 437.71-35.15ZM449.45-3.75L449.45 0 445.5 0 445.5-35.35 449.45-35.35 449.45-21.55Q452.2-25.75 457.15-25.75L457.15-25.75Q461.95-25.75 465-22.08 468.05-18.4 468.05-12.45L468.05-12.45Q468.05-7.1 465.18-3.35 462.3 0.4 457.25 0.4L457.25 0.4Q452.15 0.4 449.45-3.75L449.45-3.75ZM449.45-12.85L449.45-12.85Q449.45-7.8 451.63-5.5 453.8-3.2 456.9-3.2L456.9-3.2Q459.95-3.2 461.95-5.75 463.95-8.3 463.95-12.4L463.95-12.4Q463.95-17.1 461.88-19.63 459.8-22.15 456.65-22.15L456.65-22.15Q453.95-22.15 451.7-19.9 449.45-17.65 449.45-12.85ZM478-35.35L478 0 474.05 0 474.05-35.35 478-35.35ZM504-5L504-1.3Q501.05 0.25 496.8 0.25L496.8 0.25Q491.05 0.25 487.52-3.28 484-6.8 484-12.6L484-12.6Q484-18.65 487.15-22.15 490.3-25.65 495.25-25.65L495.25-25.65Q500-25.65 502.8-22.6 505.6-19.55 505.6-13.95L505.6-13.95Q505.6-12.35 505.35-11L505.35-11 488.05-11Q488.5-7.25 490.9-5.25 493.3-3.25 497.2-3.25L497.2-3.25Q501.45-3.25 504-5L504-5ZM495.25-22.2L495.25-22.2Q492.4-22.2 490.4-20.15 488.4-18.1 488.05-14.3L488.05-14.3 501.65-14.3 501.65-15.3Q501.65-18.45 499.95-20.33 498.25-22.2 495.25-22.2ZM514.2-4.65Q515.05-3.8 515.05-2.55 515.05-1.3 514.2-0.45 513.35 0.4 512.1 0.4 510.85 0.4 510-0.45 509.15-1.3 509.15-2.55 509.15-3.8 510-4.65 510.85-5.5 512.1-5.5 513.35-5.5 514.2-4.65ZM547.34-10.65L544.19 0 539.04 0 530.24-33.7 534.49-33.7 537.64-21.2 541.79-4.25Q544.59-14.5 546.54-21.2L546.54-21.2 550.04-33.2 554.09-33.2 557.79-21.2 562.89-4.1Q565.19-15.15 566.59-21.15L566.59-21.15 569.44-33.7 573.54-33.7 565.64 0 560.44 0 557.19-10.65 552.14-27.5Q550.59-21.6 547.34-10.65L547.34-10.65ZM597.49-5L597.49-1.3Q594.54 0.25 590.29 0.25L590.29 0.25Q584.54 0.25 581.01-3.28 577.49-6.8 577.49-12.6L577.49-12.6Q577.49-18.65 580.64-22.15 583.79-25.65 588.74-25.65L588.74-25.65Q593.49-25.65 596.29-22.6 599.09-19.55 599.09-13.95L599.09-13.95Q599.09-12.35 598.84-11L598.84-11 581.54-11Q581.99-7.25 584.39-5.25 586.79-3.25 590.69-3.25L590.69-3.25Q594.94-3.25 597.49-5L597.49-5ZM588.74-22.2L588.74-22.2Q585.89-22.2 583.89-20.15 581.89-18.1 581.54-14.3L581.54-14.3 595.14-14.3 595.14-15.3Q595.14-18.45 593.44-20.33 591.74-22.2 588.74-22.2ZM629.78 0L629.78 0 617.48 0 617.48-33.7 627.63-33.7Q632.83-33.7 635.96-31.3 639.08-28.9 639.08-24.85L639.08-24.85Q639.08-21.95 637.46-19.83 635.83-17.7 633.28-17.15L633.28-17.15Q636.08-16.7 638.06-14.63 640.03-12.55 640.03-9L640.03-9Q640.03-4.95 637.36-2.48 634.68 0 629.78 0ZM627.63-30.25L627.63-30.25 621.53-30.25 621.53-18.75 626.93-18.75Q630.98-18.75 632.93-20.45 634.88-22.15 634.88-24.85L634.88-24.85Q634.88-27.2 633.06-28.73 631.23-30.25 627.63-30.25ZM628.43-15.3L628.43-15.3 621.53-15.3 621.53-3.45 629.18-3.45Q632.38-3.45 634.11-4.93 635.83-6.4 635.83-9.25 635.83-12.1 633.91-13.7 631.98-15.3 628.43-15.3ZM665.53-25.35L665.53 0 661.58 0 661.58-4.4Q659.58 0.3 653.63 0.3L653.63 0.3Q649.88 0.3 647.7-1.93 645.53-4.15 645.53-7.9L645.53-7.9 645.53-25.35 649.48-25.35 649.48-8.9Q649.48-6.15 650.88-4.7 652.28-3.25 654.68-3.25L654.68-3.25Q657.83-3.25 659.7-5.45 661.58-7.65 661.58-11.4L661.58-11.4 661.58-25.35 665.53-25.35ZM676.98-25.35L676.98 0 673.03 0 673.03-25.35 676.98-25.35ZM676.83-35.15Q677.58-34.4 677.58-33.3 677.58-32.2 676.83-31.48 676.08-30.75 674.98-30.75 673.88-30.75 673.15-31.48 672.43-32.2 672.43-33.3 672.43-34.4 673.15-35.15 673.88-35.9 674.98-35.9 676.08-35.9 676.83-35.15ZM688.62-35.35L688.62 0 684.67 0 684.67-35.35 688.62-35.35ZM698.72-12.4L698.72-12.4Q698.72-8.3 700.72-5.75 702.72-3.2 705.77-3.2L705.77-3.2Q708.87-3.2 711.05-5.5 713.22-7.8 713.22-12.85L713.22-12.85Q713.22-17.65 710.97-19.9 708.72-22.15 706.02-22.15L706.02-22.15Q702.87-22.15 700.8-19.63 698.72-17.1 698.72-12.4ZM717.17-35.35L717.17 0 713.22 0 713.22-3.75Q710.52 0.4 705.42 0.4L705.42 0.4Q700.37 0.4 697.5-3.35 694.62-7.1 694.62-12.45L694.62-12.45Q694.62-18.4 697.67-22.08 700.72-25.75 705.52-25.75L705.52-25.75Q710.47-25.75 713.22-21.5L713.22-21.5 713.22-35.35 717.17-35.35ZM741.22-33.7L741.22 0 737.17 0 737.17-33.7 741.22-33.7ZM782.91-17.4L782.91 0 778.96 0 778.96-16.4Q778.96-22.15 774.11-22.15L774.11-22.15Q771.71-22.15 769.81-19.98 767.91-17.8 767.91-13.85L767.91-13.85 767.91 0 763.96 0 763.96-16.4Q763.96-22.15 759.11-22.15L759.11-22.15Q756.71-22.15 754.81-19.98 752.91-17.8 752.91-13.85L752.91-13.85 752.91 0 749.01 0 749.01-25.35 752.91-25.35 752.91-21.25Q755.01-25.7 760.06-25.7L760.06-25.7Q765.91-25.7 767.46-20.75L767.46-20.75Q768.56-23.15 770.54-24.43 772.51-25.7 774.96-25.7L774.96-25.7Q778.91-25.7 780.91-23.45 782.91-21.2 782.91-17.4L782.91-17.4ZM793.81-3.85L793.81 9.85 789.91 9.85 789.91-25.35 793.81-25.35 793.81-21.5Q796.46-25.75 801.66-25.75L801.66-25.75Q806.71-25.75 809.59-22.08 812.46-18.4 812.46-12.9L812.46-12.9Q812.46-7.05 809.44-3.33 806.41 0.4 801.56 0.4L801.56 0.4Q796.56 0.4 793.81-3.85L793.81-3.85ZM793.81-12.65L793.81-12.65Q793.81-7.8 796.06-5.5 798.31-3.2 801.06-3.2L801.06-3.2Q804.26-3.2 806.31-5.73 808.36-8.25 808.36-12.9L808.36-12.9Q808.36-17.05 806.36-19.6 804.36-22.15 801.31-22.15 798.26-22.15 796.04-19.93 793.81-17.7 793.81-12.65ZM840.56-12.6L840.56-12.6Q840.56-6.95 837.36-3.25 834.16 0.45 828.56 0.45L828.56 0.45Q823.11 0.45 819.93-3.23 816.76-6.9 816.76-12.5L816.76-12.5Q816.76-18.15 820.03-21.93 823.31-25.7 828.56-25.7L828.56-25.7Q834.31-25.7 837.43-22 840.56-18.3 840.56-12.6ZM820.86-12.55L820.86-12.55Q820.86-8.6 822.96-5.83 825.06-3.05 828.56-3.05L828.56-3.05Q832.36-3.05 834.41-5.78 836.46-8.5 836.46-12.55L836.46-12.55Q836.46-16.75 834.51-19.48 832.56-22.2 828.56-22.2L828.56-22.2Q824.96-22.2 822.91-19.4 820.86-16.6 820.86-12.55ZM861.61-6.75L861.61-6.75Q861.61-3.5 859.33-1.6 857.06 0.3 853.11 0.3L853.11 0.3Q848.51 0.3 845.66-1.25L845.66-1.25 845.66-5.1Q849.01-3.1 852.86-3.1L852.86-3.1Q855.16-3.1 856.36-4 857.56-4.9 857.56-6.45L857.56-6.45Q857.56-8.25 856.23-9.25 854.91-10.25 851.81-11.5L851.81-11.5Q848.96-12.6 847.23-14.25 845.51-15.9 845.51-18.7L845.51-18.7Q845.51-21.85 847.88-23.73 850.26-25.6 853.81-25.6L853.81-25.6Q857.76-25.6 860.16-24.5L860.16-24.5 860.16-20.75Q857.86-22.15 853.86-22.15L853.86-22.15Q851.86-22.15 850.68-21.23 849.51-20.3 849.51-18.85L849.51-18.85Q849.51-17.95 849.86-17.28 850.21-16.6 851.23-15.95 852.26-15.3 852.73-15.08 853.21-14.85 854.81-14.15L854.81-14.15Q858.01-12.85 859.81-11.2 861.61-9.55 861.61-6.75ZM882.2-6.75L882.2-6.75Q882.2-3.5 879.93-1.6 877.65 0.3 873.7 0.3L873.7 0.3Q869.1 0.3 866.25-1.25L866.25-1.25 866.25-5.1Q869.6-3.1 873.45-3.1L873.45-3.1Q875.75-3.1 876.95-4 878.15-4.9 878.15-6.45L878.15-6.45Q878.15-8.25 876.83-9.25 875.5-10.25 872.4-11.5L872.4-11.5Q869.55-12.6 867.83-14.25 866.1-15.9 866.1-18.7L866.1-18.7Q866.1-21.85 868.48-23.73 870.85-25.6 874.4-25.6L874.4-25.6Q878.35-25.6 880.75-24.5L880.75-24.5 880.75-20.75Q878.45-22.15 874.45-22.15L874.45-22.15Q872.45-22.15 871.28-21.23 870.1-20.3 870.1-18.85L870.1-18.85Q870.1-17.95 870.45-17.28 870.8-16.6 871.83-15.95 872.85-15.3 873.33-15.08 873.8-14.85 875.4-14.15L875.4-14.15Q878.6-12.85 880.4-11.2 882.2-9.55 882.2-6.75ZM891.7-25.35L891.7 0 887.75 0 887.75-25.35 891.7-25.35ZM891.55-35.15Q892.3-34.4 892.3-33.3 892.3-32.2 891.55-31.48 890.8-30.75 889.7-30.75 888.6-30.75 887.88-31.48 887.15-32.2 887.15-33.3 887.15-34.4 887.88-35.15 888.6-35.9 889.7-35.9 890.8-35.9 891.55-35.15ZM903.3-3.75L903.3 0 899.35 0 899.35-35.35 903.3-35.35 903.3-21.55Q906.05-25.75 911-25.75L911-25.75Q915.8-25.75 918.85-22.08 921.9-18.4 921.9-12.45L921.9-12.45Q921.9-7.1 919.02-3.35 916.15 0.4 911.1 0.4L911.1 0.4Q906 0.4 903.3-3.75L903.3-3.75ZM903.3-12.85L903.3-12.85Q903.3-7.8 905.47-5.5 907.65-3.2 910.75-3.2L910.75-3.2Q913.8-3.2 915.8-5.75 917.8-8.3 917.8-12.4L917.8-12.4Q917.8-17.1 915.72-19.63 913.65-22.15 910.5-22.15L910.5-22.15Q907.8-22.15 905.55-19.9 903.3-17.65 903.3-12.85ZM931.85-35.35L931.85 0 927.9 0 927.9-35.35 931.85-35.35ZM957.84-5L957.84-1.3Q954.89 0.25 950.64 0.25L950.64 0.25Q944.89 0.25 941.37-3.28 937.84-6.8 937.84-12.6L937.84-12.6Q937.84-18.65 940.99-22.15 944.14-25.65 949.09-25.65L949.09-25.65Q953.84-25.65 956.64-22.6 959.44-19.55 959.44-13.95L959.44-13.95Q959.44-12.35 959.19-11L959.19-11 941.89-11Q942.34-7.25 944.74-5.25 947.14-3.25 951.04-3.25L951.04-3.25Q955.29-3.25 957.84-5L957.84-5ZM949.09-22.2L949.09-22.2Q946.24-22.2 944.24-20.15 942.24-18.1 941.89-14.3L941.89-14.3 955.49-14.3 955.49-15.3Q955.49-18.45 953.79-20.33 952.09-22.2 949.09-22.2Z" opacity="1" transform="matrix(1,0,0,1,0,0)" fill="#ffffff" class="slogan-text-1" data-fill-palette-color="secondary" id="text-1"></path>
														</svg>
													</g>
												</svg>
											</g>
										</svg>
									</g>
								</svg>
							</g>
							<g>
								<svg viewBox="0 0 76.68903105014796 80.87141443531377" height="80.87141443531377" width="76.68903105014796">
									<g>
										<svg
											xmlns="http://www.w3.org/2000/svg"
											xmlns:xlink="http://www.w3.org/1999/xlink" version="1.1" x="0" y="0" viewBox="6.125493841281892 2.0389928926974012 89.98915147354866 94.89688243343033" enable-background="new 0 0 100 100" xml:space="preserve" height="80.87141443531377" width="76.68903105014796" class="icon-icon-0" data-fill-palette-color="accent" id="icon-0">
											<g fill="#091E3E" data-fill-palette-color="accent">
												<path d="M20.458 6.184c0 0 4.187 1.825 4.354 2.492 0.167 0.666-1.071 1.752-1.071 1.752-0.413 0.363-0.657 1.1-0.542 1.637 0 0 0.711 3.312 1.211 3.479s1.69 1.275 1.69 1.275c0.403 0.375 0.882 0.682 1.065 0.682 0.183 0 0.333 0.45 0.333 1l0 0c0 0.55-0.112 1-0.25 1s-0.284 0.449-0.325 0.997l-0.058 0.756c-0.041 0.548-0.42 1.286-0.842 1.639l-1.008 0.633C24.595 23.878 24 24.617 24 25.167V25.5c0 0.55 0.138 1 0 1s-0.575-0.021-1.124-0.047c0 0-0.689-0.036-1.48 2.131s-1.76 0.875-1.76 1.375-1.857 2.184-1.857 2.184C17.342 32.477 16.775 33 16.5 33s-0.95 0-1.5 0l0 0c-0.55 0-1.45 0-2 0l0 0c-0.55 0-1.29 0.094-1.644 0.515l-0.045-0.072c-0.354 0.421-0.445 1.106-0.202 1.6l0.615 1.216c0.243 0.493 0.69 1.257 0.994 1.716l0.397 0.594c0.303 0.459 0.589 1.273 0.635 1.815s0.383 1.316 0.75 1.725 0.223 0.664-0.319 0.569c0 0-0.015-0.003-0.515 0.164s-2.002 0.063-2.002 0.063c-0.549-0.037-1.423 0.08-1.942 0.26L7.778 43.84c-0.52 0.181-1.17 0.478-1.445 0.661s-0.277 0.724-0.004 1.201l0.341 0.597c0.273 0.478 0.848 1.149 1.277 1.493l0.104 0.333C8.482 48.469 9.284 49 9.833 49H10c0.55 0 1.45 0 2 0l0 0c0.55 0 0.617-0.014 0.149 0.275 0 0-1.983 1.1-3.483 1.1s3.263 4.304 3.263 4.304c0.406 0.372 1.181 0.722 1.722 0.817 0 0 1.515 0.249 2.515-0.251s1.115-0.783 1.115-0.783c0.212-0.508 0.61-1.155 0.885-1.435s0.279-0.901 0.008-1.381l-0.433-0.767c-0.271-0.479-0.419-0.427-0.331 0.116l0.678 5.685C18.178 57.223 18 58.117 18 58.667V60c0 0.55 0.502 1.373 0.811 1.828 0 0 1.481 2.005 1.481 3.005s0.486 2.07 0.486 2.07c0.203 0.512 0.471 1.374 0.56 1.917l0.424 2.525c0.088 0.543 0.342 1.402 0.555 1.909l4.262 10.156c0.213 0.507 0.627 1.304 0.918 1.771 0 0 4.487 7.19 4.654 9.651s0.695 2.083 0.695 2.083c0.447-0.321 1.262-0.554 1.811-0.519l0.596 0.056C35.801 96.488 36 96.067 36 95.518V95c0-0.55 0.688-1.106 1.222-1.235l0.932-0.196c0.534-0.129 1.283-0.61 1.587-1.068l1.468-2.167c0.304-0.458 0.703-0.758 1.172-0.667 0.47 0.092 0.62-0.283 0.62-0.833V86c0-0.55 0-1.45 0-2v-3c0-0.55 0-1.45 0-2v-4c0-0.55 0.563-1.323 0.945-1.719l1.152-1.063c0.382-0.396 1.063-1.049 1.437-1.453l0.215-0.198c0.374-0.404 1.122-0.875 1.645-1.047l1.149-0.375c0.523-0.172 0.954-0.725 0.954-1.229 0-0.504 0.358-1.19 0.794-1.526l9.667-7.446c0.436-0.336 1.148-0.887 1.582-1.224l2.713-2.106c0.435-0.337 0.547-0.992 0.25-1.455 0 0-0.73-1.141 0.603-1.475s3.432-0.666 3.432-0.666C70.066 51.87 70.95 52 71.5 52H72c0.55 0 1.018-0.699 1.039-1.249 0 0 0.128-3.375-0.872-4.042s-1.208-2.362-1.208-2.362c-0.069-0.546-0.351-1.263-0.626-1.555s-0.527-0.996-0.562-1.545c0 0-0.104-1.708 0.896-1.541s-3-1.853-1.5-3.02 3.055 0.042 3.055 0.042c0.434 0.338 0.974 0.763 1.2 0.945 0.227 0.182 0.448 0.743 0.494 1.247 0.047 0.503 0.528 0.847 1.072 0.763l4.273-0.698C79.806 38.902 80 39.284 80 39.833V40c0 0.55 0.049 1.402-0.197 1.895l-0.397 1.044c-0.246 0.492-0.263 1.328-0.114 1.857l0.24 0.741C79.68 46.067 80.08 46.5 80.4 46.5c0.321 0 0.72-0.432 0.876-0.959l0.103-0.332c0.156-0.527 0.474-0.55 0.703-0.05l0.333 0.724c0.229 0.5 0.519 1.347 0.64 1.884l0.223 0.968c0.122 0.537 0.567 0.686 0.988 0.333l0.469-0.393c0.421-0.354 0.692-1.086 0.603-1.629 0 0-0.17-1.029 0.163-1.529s-0.166-4.341 0.667-3.841 2.166 1.83 3.333-4.67 4.499-6.835 5.833-6.335S95.888 30 95.888 30c-0.305-0.458-0.421-1.132-0.259-1.499 0.163-0.367-0.124-0.826-0.639-1.02l-1.222-0.461c-0.515-0.194-0.86-0.69-0.769-1.103 0.092-0.413-0.096-0.976-0.416-1.25-0.321-0.275-1.021-0.391-1.554-0.257l-0.061 0.015c-0.533 0.133-1.419 0.268-1.968 0.298l-1.004 0.056c-0.549 0.031-1.274 0.411-1.612 0.845l-1.104 1.421c-0.338 0.434-0.966 1.071-1.396 1.414l-0.938 0.751c-0.43 0.343-1.152 0.878-1.606 1.189l-1.517 1.038c-0.454 0.311-1.259 0.684-1.789 0.83l-1.405 0.386c-0.53 0.146-1.396 0.391-1.924 0.545l-0.08 0.023c-0.528 0.154-1.335 0.28-1.793 0.28-0.459 0-1.144-0.327-1.521-0.726l-0.125-0.131c-0.378-0.399-1.117-0.86-1.642-1.024l-0.092-0.028c-0.524-0.164-1.112 0.123-1.306 0.638l-0.464 1.232c-0.193 0.515-0.785 1.057-1.314 1.205l-2.74 0.765c-0.529 0.147-1.399 0.161-1.934 0.029 0 0-17.363-4.276-18.03-6.109S43 27.516 43 27.516c0-0.004 0.304-0.34 0.675-0.746l0.484-0.528c0.371-0.406 0.975-0.963 1.341-1.239s0.275-0.723-0.204-0.994l-4.593-2.599c-0.479-0.271-1.111-0.873-1.406-1.337l-1.096-1.479C37.907 18.13 38.117 18 38.667 18H39c0.55 0 1.3-0.531 1.667-0.875 0.367-0.344 0.443-1.141 0.17-1.618l-0.508-0.951c-0.273-0.478-0.381-1.334-0.241-1.866 0 0 0.245-0.945 0.912-0.945s2.136-2.358 2.136-2.358c0.292-0.466 0.436-1.292 0.321-1.829l-0.081-0.379c-0.115-0.538-0.657-1.027-1.204-1.087 0 0-3.506-0.383-5.006 0.1s-4.564-0.669-4.564-0.669c-0.515-0.193-1.246-0.679-1.624-1.078l-1.625-1.716c-0.378-0.399-1.137-0.709-1.687-0.688 0 0-3.334 0.127-4 0.961S21.916 2.867 20.458 6.184z" class="sticky-top" fill="#ffffff" data-fill-palette-color="accent"></path>

												<path fill="none" stroke="#FFFF00" stroke-miterlimit="10" d="M20.458 6.184c0 0 4.187 1.825 4.354 2.492 0.167 0.666-1.071 1.752-1.071 1.752-0.413 0.363-0.657 1.1-0.542 1.637 0 0 0.711 3.312 1.211 3.479s1.69 1.275 1.69 1.275c0.403 0.375 0.882 0.682 1.065 0.682 0.183 0 0.333 0.45 0.333 1l0 0c0 0.55-0.112 1-0.25 1s-0.284 0.449-0.325 0.997l-0.058 0.756c-0.041 0.548-0.42 1.286-0.842 1.639l-0.758 0.633c-0.422 0.353-0.767 1.092-0.767 1.642V25.5c0 0.55-0.112 1-0.25 1s-0.7-0.021-1.249-0.047c0 0-0.751-0.036-1.543 2.131s-1.792 0.875-1.792 1.375-1.873 1.934-1.873 1.934C17.357 32.227 16.775 32.5 16.5 32.5s-0.95 0-1.5 0l0 0c-0.55 0-1.45 0-2 0l0 0c-0.55 0-1.29 0.344-1.644 0.765l-0.045 0.053c-0.354 0.421-0.445 1.169-0.202 1.662l0.615 1.248c0.243 0.493 0.69 1.272 0.994 1.731l0.397 0.602c0.303 0.459 0.589 1.277 0.635 1.819s0.383 1.318 0.75 1.727 0.223 0.665-0.319 0.57c0 0-0.015-0.002-0.515 0.164s-2.002 0.064-2.002 0.064c-0.549-0.037-1.423 0.08-1.942 0.26L7.778 43.84c-0.52 0.181-1.17 0.478-1.445 0.661s-0.277 0.724-0.004 1.201l0.341 0.597c0.273 0.478 0.848 1.149 1.277 1.493l0.104 0.083c0.43 0.344 1.231 0.625 1.781 0.625H10c0.55 0 1.45 0 2 0l0 0c0.55 0 0.617 0.236 0.149 0.525 0 0-1.983 1.225-3.483 1.225s3.263 4.366 3.263 4.366c0.406 0.372 1.181 0.753 1.722 0.849 0 0 1.515 0.265 2.515-0.235s1.115-0.775 1.115-0.775c0.212-0.508 0.61-1.151 0.885-1.431s0.279-0.899 0.008-1.379l-0.433-0.766c-0.271-0.479-0.419-0.426-0.331 0.116l0.928 5.685c0.089 0.543 0.161 1.438 0.161 1.987V60c0 0.55 0.252 1.373 0.561 1.828 0 0 1.356 2.005 1.356 3.005s0.424 2.07 0.424 2.07c0.203 0.512 0.44 1.374 0.528 1.917l0.409 2.525c0.088 0.543 0.334 1.402 0.547 1.909l4.258 10.156c0.213 0.507 0.625 1.304 0.916 1.771 0 0 4.486 7.19 4.653 9.651s0.695 2.083 0.695 2.083c0.447-0.321 1.262-0.554 1.811-0.519l0.845 0.056c0.549 0.035 0.998-0.386 0.998-0.936V95c0-0.55 0.438-1.106 0.972-1.235l0.807-0.196c0.534-0.129 1.22-0.61 1.524-1.068l1.437-2.167c0.304-0.458 0.937-0.758 1.407-0.667 0.47 0.092 0.854-0.283 0.854-0.833V86c0-0.55 0-1.45 0-2v-3c0-0.55 0-1.45 0-2v-4c0-0.55 0.313-1.323 0.695-1.719l1.027-1.063c0.382-0.396 1-1.049 1.374-1.453l0.184-0.198c0.374-0.404 1.106-0.875 1.629-1.047l1.141-0.375c0.523-0.172 0.95-0.725 0.95-1.229 0-0.504 0.356-1.19 0.792-1.526l9.666-7.446c0.436-0.336 1.147-0.887 1.582-1.224l2.712-2.106c0.435-0.337 0.547-0.992 0.25-1.455 0 0-0.73-1.141 0.603-1.475s3.432-0.916 3.432-0.916C70.066 51.62 70.95 51.5 71.5 51.5H72c0.55 0 1.018-0.449 1.039-0.999 0 0 0.128-3.25-0.872-3.917s-1.208-2.3-1.208-2.3c-0.069-0.546-0.351-1.231-0.626-1.523s-0.527-0.98-0.562-1.529c0 0-0.104-1.7 0.896-1.533s-3-1.849-1.5-3.016 3.055 0.044 3.055 0.044c0.434 0.338 0.974 0.764 1.2 0.946 0.227 0.182 0.448 0.743 0.494 1.247 0.047 0.503 0.528 0.847 1.072 0.763l4.523-0.697c0.544-0.084 0.988 0.298 0.988 0.848V40c0 0.55-0.201 1.402-0.447 1.895l-0.522 1.044c-0.246 0.492-0.325 1.328-0.177 1.857l0.209 0.741c0.148 0.53 0.533 0.963 0.854 0.963 0.321 0 0.712-0.432 0.868-0.959l0.099-0.332c0.156-0.527 0.472-0.55 0.701-0.05l0.332 0.724c0.229 0.5 0.518 1.347 0.64 1.884l0.222 0.968c0.122 0.537 0.567 0.686 0.988 0.333l0.469-0.393c0.421-0.354 0.692-1.086 0.603-1.629 0 0-0.17-1.029 0.163-1.529s-0.166-4.341 0.667-3.841 2.166 1.83 3.333-4.67 4.499-6.835 5.833-6.335S95.888 30 95.888 30c-0.305-0.458-0.421-1.132-0.259-1.499 0.163-0.367-0.124-0.826-0.639-1.02l-1.222-0.461c-0.515-0.194-0.86-0.69-0.769-1.103 0.092-0.413-0.096-0.976-0.416-1.25-0.321-0.275-1.021-0.391-1.554-0.257l-0.061 0.015c-0.533 0.133-1.419 0.268-1.968 0.298l-1.004 0.056c-0.549 0.031-1.274 0.411-1.612 0.845l-1.104 1.421c-0.338 0.434-0.966 1.071-1.396 1.414l-0.938 0.751c-0.43 0.343-1.152 0.878-1.606 1.189l-1.517 1.038c-0.454 0.311-1.259 0.684-1.789 0.83l-1.405 0.386c-0.53 0.146-1.396 0.391-1.924 0.545l-0.08 0.023c-0.528 0.154-1.335 0.28-1.793 0.28-0.459 0-1.144-0.327-1.521-0.726l-0.125-0.131c-0.378-0.399-1.117-0.86-1.642-1.024l-0.092-0.028c-0.524-0.164-1.112 0.123-1.306 0.638l-0.464 1.232c-0.193 0.515-0.785 1.057-1.314 1.205l-2.74 0.765c-0.529 0.147-1.399 0.161-1.934 0.029 0 0-17.363-4.276-18.03-6.109S43 27.516 43 27.516c0-0.004 0.304-0.34 0.675-0.746l0.484-0.528c0.371-0.406 0.975-0.963 1.341-1.239s0.275-0.723-0.204-0.994l-4.593-2.599c-0.479-0.271-1.111-0.873-1.406-1.337l-1.096-1.729c-0.295-0.465-0.085-0.845 0.464-0.845H39c0.55 0 1.3-0.281 1.667-0.625 0.367-0.344 0.443-1.016 0.17-1.493l-0.508-0.889c-0.273-0.478-0.381-1.303-0.241-1.835 0 0 0.245-0.929 0.912-0.929s2.136-2.35 2.136-2.35c0.292-0.466 0.436-1.288 0.321-1.825l-0.081-0.377c-0.115-0.538-0.657-1.026-1.204-1.086 0 0-3.506-0.382-5.006 0.101s-4.564-0.669-4.564-0.669c-0.515-0.194-1.246-0.679-1.624-1.078l-1.625-1.716c-0.378-0.399-1.137-0.709-1.687-0.688 0 0-3.334 0.127-4 0.961S21.916 2.867 20.458 6.184z"></path>
											</g>
										</svg>
									</g>
								</svg>
							</g>
						</svg>
					</g>
					<defs></defs>
				</svg>
				<rect width="395.52" height="65.03756623042027" fill="none" stroke="none" visibility="hidden"></rect>
			</g>
		</svg>
	</g>
</svg>